<?xml version="1.0" encoding="UTF-8" standalone="no"?> <!-- Created with Vectornator for iOS (http://vectornator.io/) --><!DOCTYPE svg PUBLIC "-//W3C//DTD SVG 1.1//EN" "http://www.w3.org/Graphics/SVG/1.1/DTD/svg11.dtd">
<svg height="100%" style="fill-rule:nonzero;clip-rule:evenodd;stroke-linecap:round;stroke-linejoin:round;" xmlns:xlink="http://www.w3.org/1999/xlink" xmlns="http://www.w3.org/2000/svg" xml:space="preserve" width="100%" xmlns:vectornator="http://vectornator.io" version="1.1" viewBox="0 0 845 297">
<metadata>
<vectornator:setting key="DimensionsVisible" value="1"/>
<vectornator:setting key="PencilOnly" value="0"/>
<vectornator:setting key="SnapToPoints" value="1"/>
<vectornator:setting key="OutlineMode" value="0"/>
<vectornator:setting key="CMYKEnabledKey" value="0"/>
<vectornator:setting key="RulersVisible" value="1"/>
<vectornator:setting key="SnapToEdges" value="0"/>
<vectornator:setting key="GuidesVisible" value="1"/>
<vectornator:setting key="DisplayWhiteBackground" value="0"/>
<vectornator:setting key="doHistoryDisabled" value="0"/>
<vectornator:setting key="SnapToGuides" value="1"/>
<vectornator:setting key="TimeLapseWatermarkDisabled" value="0"/>
<vectornator:setting key="Units" value="Points"/>
<vectornator:setting key="DynamicGuides" value="1"/>
<vectornator:setting key="IsolateActiveLayer" value="0"/>
<vectornator:setting key="SnapToGrid" value="0"/>
</metadata>
<defs/>
<g id="Layer 1" vectornator:layerName="Layer 1">
<path d="M573.287+168.702C573.287+194.323+590.618+211.956+612.17+211.956C626.036+211.956+635.982+205.325+641.257+198.242L641.257+211.956L658.589+211.956L658.589+127.558L641.257+127.558L641.257+139.615C636.133+132.833+626.488+126.202+612.472+126.202C590.618+126.202+573.287+143.081+573.287+168.702ZM641.257+169.004C641.257+186.938+629.05+197.036+616.089+197.036C603.278+197.036+590.92+186.637+590.92+168.702C590.92+150.768+603.278+141.122+616.089+141.122C629.05+141.122+641.257+151.22+641.257+169.004Z" opacity="1" fill="#fefefe"/>
<path d="M699.942+210.574C719.535+210.574+731.742+200.024+731.742+186.008C730.838+156.016+683.967+165.36+683.967+148.631C683.967+143.055+688.79+139.287+697.983+139.287C707.327+139.287+712.904+144.261+713.506+151.495L730.688+151.495C729.783+134.917+717.425+124.819+698.586+124.819C678.994+124.819+666.635+135.519+666.635+148.782C666.635+179.226+714.863+169.882+714.863+186.158C714.863+191.885+709.588+196.105+699.641+196.105C690.146+196.105+683.666+190.529+683.063+183.747L665.279+183.747C666.033+198.818+680.049+210.574+699.942+210.574Z" opacity="1" fill="#fefefe"/>
<path d="M778.038+137.909C790.848+137.909+800.946+146.048+801.247+158.858L755.28+158.858C757.089+145.746+766.433+137.909+778.038+137.909ZM816.921+183.122L798.384+183.122C795.219+189.603+789.341+194.727+778.791+194.727C766.131+194.727+756.335+186.438+755.13+172.723L818.579+172.723C819.031+169.86+819.182+167.147+819.182+164.284C819.182+139.868+802.453+123.441+778.791+123.441C754.225+123.441+737.346+140.17+737.346+166.243C737.346+192.316+754.979+209.195+778.791+209.195C799.137+209.195+812.249+197.591+816.921+183.122Z" opacity="1" fill="#fefefe"/>
<path d="M483.624+94.0474L483.624+210.574L500.921+210.574L501.068+198.317C506.581+205.667+516.523+211.956+530.457+211.956C552.66+211.956+570.132+194.055+570.132+168.024C570.132+141.993+552.813+124.808+530.457+124.808C517.135+124.808+506.581+131.092+501.068+138.748L501.068+97.2652L483.624+94.0474ZM526.652+139.992C539.82+139.992+552.386+149.802+552.386+168.024C552.386+186.246+539.82+196.81+526.652+196.81C513.636+196.81+501.068+186.547+501.068+168.325C501.068+150.257+513.636+139.992+526.652+139.992Z" opacity="1" fill="#fefefe"/>
<path d="M165.598+210.574C189.485+210.574+208.626+193.73+208.626+167.087C208.626+140.597+190.098+123.906+166.211+123.906C142.477+123.906+123.796+140.597+123.796+167.087C123.796+193.73+141.864+210.574+165.598+210.574ZM165.598+198.324C151.052+198.324+138.036+188.371+138.036+167.087C138.036+145.956+151.358+136.003+166.058+136.003C180.451+136.003+194.385+145.956+194.385+167.087C194.385+188.371+180.145+198.324+165.598+198.324Z" opacity="1" fill="#fefefe"/>
<path d="M337.159+161.727L337.159+209.195L350.94+209.195L350.94+159.737C350.94+135.697+336.087+123.753+316.947+123.753C304.085+123.753+292.141+130.337+287.241+142.434C281.729+129.878+270.245+123.753+256.464+123.753C245.439+123.753+235.486+128.5+229.974+137.381L229.974+125.284L216.04+125.284L216.04+209.195L229.974+209.195L229.974+162.952C229.974+144.884+239.62+135.85+253.708+135.85C267.489+135.85+276.676+144.578+276.676+161.727L276.676+209.195L290.457+209.195L290.457+162.952C290.457+144.884+300.104+135.85+314.191+135.85C327.972+135.85+337.159+144.578+337.159+161.727Z" opacity="1" fill="#fefefe"/>
<path d="M424.197+161.727L424.197+209.195L437.978+209.195L437.978+159.737C437.978+135.697+423.125+123.753+403.678+123.753C392.347+123.753+382.241+128.5+376.729+137.228L376.729+125.284L362.795+125.284L362.795+209.195L376.729+209.195L376.729+162.799C376.729+144.731+386.529+135.85+400.769+135.85C414.856+135.85+424.197+144.578+424.197+161.727Z" opacity="1" fill="#fefefe"/>
<path d="M455.03+126.662L455.03+210.574L468.964+210.574L468.964+126.662L455.03+126.662ZM462.227+113.035C467.28+113.035+471.414+108.9+471.414+103.541C471.414+98.1817+467.28+94.0474+462.227+94.0474C456.868+94.0474+452.733+98.1817+452.733+103.541C452.733+108.9+456.868+113.035+462.227+113.035Z" opacity="1" fill="#fefefe"/>
<path d="M258.796+217.284C258.029+218.749+257.243+220.201+256.406+221.64C235.88+257.414+197.174+278.82+155.536+277.94C150.551+277.94+146.739+281.752+146.445+286.444C146.445+291.429+150.257+295.241+154.949+295.534C156.122+295.534+157.295+295.534+158.468+295.534C205.384+295.534+248.489+270.903+271.654+230.437C274.212+225.994+275.977+221.938+277.981+217.284" opacity="1" fill="#fefefe"/>
<path d="M185.07+217.284C134.134+270.22+83.3302+289.89+64.9279+274.421C58.7701+269.143+55.8378+260.053+56.4242+247.738C63.4617+255.948+71.3789+263.572+80.7622+270.316C82.2284+271.489+83.9877+272.076+86.0403+272.076C88.6794+272.076+91.6117+270.903+93.0778+268.557C96.0101+264.745+95.1304+259.173+91.0252+256.241C43.2289+221.933+29.4472+158.01+58.4768+107.574C89.5591+53.6202+159.348+35.44+213.888+66.8155C223.271+72.0936+231.775+78.8378+239.106+86.4618C242.624+89.9805+248.196+89.9805+251.421+86.755C254.94+83.2363+254.94+77.6649+251.715+74.4394C243.211+65.6426+233.534+58.0186+222.685+51.8608C159.641+15.5004+79.0028+36.6129+43.2289+99.0706C19.7706+139.829+20.6503+188.212+42.056+226.918C41.7628+226.918+41.4696+227.505+41.4696+228.091C35.605+255.655+40.0034+276.181+53.7852+287.91C61.1159+294.068+70.4992+297+81.3487+297C115.683+297+164.051+267.845+208.626+217.284" opacity="1" fill="#fefefe"/>
<path d="M269.537+114.677C269.537+114.677+277.801+90.5093+279.899+82.6612C281.998+74.8132+282.95+69.9288+283.09+69.1613C283.53+66.8155+282.943+64.4696+281.661+62.6003C280.378+60.731+278.398+59.3381+276.053+58.8983C273.707+58.4585+271.361+59.0449+269.492+60.3278C267.622+61.6107+266.229+63.59+265.79+65.9358C265.79+66.0868+264.817+71.1005+262.501+79.4841C260.185+87.8676+251.153+113.251+251.153+113.251C251.153+113.251+255.412+112.304+260.506+112.603C265.6+112.902+269.537+114.677+269.537+114.677Z" opacity="1" fill="#fefefe"/>
<path d="M273.593+41.9119L266.113+44.1605C265.193+44.4375+264.203+44.0373+263.733+43.1989L263.034+41.9498C261.372+38.9845+262.429+35.2346+265.394+33.5732L275.237+28.0587L273.593+41.9119Z" opacity="1" fill="#fefefe"/>
<path d="M284.762+45.0596L289.967+50.8832C290.607+51.6001+291.66+51.7756+292.499+51.3058L293.748+50.606C296.713+48.9446+297.77+45.1947+296.108+42.2294L290.594+32.3868L284.762+45.0596Z" opacity="1" fill="#fefefe"/>
<path d="M291.412+0.125C290.732-0.0667642+289.962-0.0368224+289.287+0.28125C287.261+1.23532+285.29+2.43611+283.412+3.875C272.334+12.3635+268.585+28.8823+273.6+41.9062L284.756+45.0625C295.834+36.574+301.271+20.4927+296.256+7.46875C295.406+5.26193+294.329+3.21538+293.1+1.34375C292.69+0.720153+292.092+0.316764+291.412+0.125ZM285.943+13.0625C287.731+12.8641+289.54+13.7384+290.475+15.4062C291.72+17.63+290.948+20.4416+288.725+21.6875C286.501+22.9334+283.689+22.13+282.443+19.9062C281.197+17.6825+281.97+14.8709+284.193+13.625C284.749+13.3135+285.347+13.1286+285.943+13.0625Z" opacity="1" fill="#fefefe"/>
</g>
</svg>
