<?xml version="1.0" encoding="UTF-8" standalone="no"?> <!-- Created with Vectornator for iOS (http://vectornator.io/) --><!DOCTYPE svg PUBLIC "-//W3C//DTD SVG 1.1//EN" "http://www.w3.org/Graphics/SVG/1.1/DTD/svg11.dtd">
<svg height="100%" style="fill-rule:nonzero;clip-rule:evenodd;stroke-linecap:round;stroke-linejoin:round;" xmlns:xlink="http://www.w3.org/1999/xlink" xmlns="http://www.w3.org/2000/svg" xml:space="preserve" width="100%" xmlns:vectornator="http://vectornator.io" version="1.1" viewBox="0 0 845 297">
<metadata>
<vectornator:setting key="DimensionsVisible" value="1"/>
<vectornator:setting key="PencilOnly" value="0"/>
<vectornator:setting key="SnapToPoints" value="1"/>
<vectornator:setting key="OutlineMode" value="0"/>
<vectornator:setting key="CMYKEnabledKey" value="0"/>
<vectornator:setting key="RulersVisible" value="1"/>
<vectornator:setting key="SnapToEdges" value="0"/>
<vectornator:setting key="GuidesVisible" value="1"/>
<vectornator:setting key="DisplayWhiteBackground" value="0"/>
<vectornator:setting key="doHistoryDisabled" value="0"/>
<vectornator:setting key="SnapToGuides" value="1"/>
<vectornator:setting key="TimeLapseWatermarkDisabled" value="0"/>
<vectornator:setting key="Units" value="Points"/>
<vectornator:setting key="DynamicGuides" value="1"/>
<vectornator:setting key="IsolateActiveLayer" value="0"/>
<vectornator:setting key="SnapToGrid" value="0"/>
</metadata>
<defs/>
<g id="Layer 1" vectornator:layerName="Layer 1">
<path d="M460.109+92.4636L460.109+209.899L477.542+209.899L477.69+197.547C483.245+204.954+493.265+211.293+507.308+211.293C529.684+211.293+547.292+193.251+547.292+167.017C547.292+140.784+529.838+123.464+507.308+123.464C493.882+123.464+483.245+129.798+477.69+137.513L477.69+95.7065L460.109+92.4636ZM503.473+138.766C516.744+138.766+529.408+148.654+529.408+167.017C529.408+185.381+516.744+196.028+503.473+196.028C490.356+196.028+477.69+185.685+477.69+167.321C477.69+149.112+490.356+138.766+503.473+138.766Z" opacity="1" fill="#1a34e0"/>
<path d="M592.684+211.288C617.066+211.288+636.819+194.004+636.819+167.307C636.819+140.611+617.684+123.481+593.456+123.481C569.228+123.481+550.093+140.611+550.093+167.307C550.093+194.004+568.456+211.288+592.684+211.288ZM592.684+196.01C579.413+196.01+567.994+186.597+567.994+167.307C567.994+148.018+579.876+138.759+593.147+138.759C606.264+138.759+618.764+148.018+618.764+167.307C618.764+186.597+605.801+196.01+592.684+196.01Z" opacity="1" fill="#1a34e0"/>
<path d="M682.214+211.288C706.596+211.288+726.348+194.004+726.348+167.307C726.348+140.611+707.213+123.481+682.985+123.481C658.758+123.481+639.622+140.611+639.622+167.307C639.622+194.004+657.986+211.288+682.214+211.288ZM682.214+196.01C668.942+196.01+657.523+186.597+657.523+167.307C657.523+148.018+669.405+138.759+682.677+138.759C695.794+138.759+708.293+148.018+708.293+167.307C708.293+186.597+695.331+196.01+682.214+196.01Z" opacity="1" fill="#1a34e0"/>
<path d="M765.725+211.288C785.786+211.288+798.286+200.486+798.286+186.134C797.36+155.425+749.367+164.993+749.367+147.864C749.367+142.154+754.305+138.296+763.719+138.296C773.286+138.296+778.996+143.388+779.613+150.796L797.206+150.796C796.28+133.821+783.626+123.481+764.336+123.481C744.275+123.481+731.621+134.438+731.621+148.018C731.621+179.19+781.002+169.622+781.002+186.289C781.002+192.153+775.601+196.473+765.416+196.473C755.694+196.473+749.059+190.764+748.441+183.819L730.232+183.819C731.003+199.251+745.355+211.288+765.725+211.288Z" opacity="1" fill="#1a34e0"/>
<path d="M804.743+103.729L804.743+124.87L804.743+139.222L804.743+186.289C804.743+203.572+814.156+209.899+829.28+209.899L843.168+209.899L844.094+195.363L832.366+195.239C824.959+195.239+822.49+192.616+822.49+186.289L822.49+139.222L843.168+139.222L843.168+124.87L822.49+124.87L822.49+103.729L804.743+103.729Z" opacity="1" fill="#1a34e0"/>
<path d="M139.602+209.899C163.675+209.899+182.965+192.924+182.965+166.073C182.965+139.376+164.293+122.555+140.219+122.555C116.3+122.555+97.4733+139.376+97.4733+166.073C97.4733+192.924+115.683+209.899+139.602+209.899ZM139.602+197.554C124.942+197.554+111.825+187.523+111.825+166.073C111.825+144.777+125.25+134.747+140.065+134.747C154.571+134.747+168.614+144.777+168.614+166.073C168.614+187.523+154.262+197.554+139.602+197.554Z" opacity="1" fill="#1a34e0"/>
<path d="M312.502+160.672L312.502+208.51L326.39+208.51L326.39+158.666C326.39+134.438+311.421+122.401+292.132+122.401C279.169+122.401+267.132+129.037+262.194+141.228C256.639+128.574+245.065+122.401+231.177+122.401C220.066+122.401+210.035+127.185+204.48+136.135L204.48+123.944L190.437+123.944L190.437+208.51L204.48+208.51L204.48+161.906C204.48+143.697+214.202+134.592+228.399+134.592C242.287+134.592+251.546+143.388+251.546+160.672L251.546+208.51L265.435+208.51L265.435+161.906C265.435+143.697+275.157+134.592+289.354+134.592C303.243+134.592+312.502+143.388+312.502+160.672Z" opacity="1" fill="#1a34e0"/>
<path d="M400.218+160.672L400.218+208.51L414.107+208.51L414.107+158.666C414.107+134.438+399.138+122.401+379.54+122.401C368.12+122.401+357.935+127.185+352.38+135.981L352.38+123.944L338.337+123.944L338.337+208.51L352.38+208.51L352.38+161.752C352.38+143.543+362.256+134.592+376.608+134.592C390.805+134.592+400.218+143.388+400.218+160.672Z" opacity="1" fill="#1a34e0"/>
<path d="M431.292+125.333L431.292+209.899L445.335+209.899L445.335+125.333L431.292+125.333ZM438.545+111.599C443.638+111.599+447.804+107.432+447.804+102.031C447.804+96.6302+443.638+92.4636+438.545+92.4636C433.144+92.4636+428.978+96.6302+428.978+102.031C428.978+107.432+433.144+111.599+438.545+111.599Z" opacity="1" fill="#1a34e0"/>
<path d="M233.527+216.662C232.754+218.138+231.962+219.602+231.118+221.052C210.432+257.105+171.424+278.678+129.461+277.791C124.437+277.791+120.595+281.633+120.3+286.361C120.3+291.385+124.141+295.227+128.87+295.522C130.052+295.522+131.234+295.522+132.416+295.522C179.698+295.522+223.139+270.699+246.485+229.918C249.063+225.44+250.842+221.353+252.861+216.662" opacity="1" fill="#1a34e0"/>
<path d="M159.225+216.662C107.892+270.011+56.6918+289.835+38.1458+274.245C31.94+268.926+28.9848+259.765+29.5758+247.353C36.6682+255.628+44.6472+263.311+54.1037+270.108C55.5813+271.29+57.3544+271.881+59.423+271.881C62.0827+271.881+65.0379+270.699+66.5154+268.335C69.4706+264.493+68.5841+258.878+64.4468+255.923C16.2776+221.348+2.38825+156.925+31.6444+106.096C62.9692+51.7209+133.302+33.3988+188.268+65.0191C197.725+70.3384+206.295+77.1353+213.683+84.8188C217.229+88.365+222.844+88.365+226.095+85.1143C229.641+81.5681+229.641+75.9533+226.39+72.7026C217.82+63.8371+208.068+56.1536+197.134+49.9478C133.598+13.3036+52.3306+34.5809+16.2776+97.526C-7.36381+138.603-6.47726+187.363+15.0955+226.371C14.8+226.371+14.5045+226.962+14.5045+227.553C8.59411+255.332+13.0269+276.018+26.9162+287.839C34.3041+294.045+43.7606+297+54.6948+297C89.2973+297+138.042+267.617+182.965+216.662" opacity="1" fill="#1a34e0"/>
<path d="M244.352+113.254C244.352+113.254+252.68+88.8979+254.795+80.9886C256.909+73.0793+257.87+68.1567+258.01+67.3833C258.454+65.0191+257.863+62.655+256.57+60.7711C255.277+58.8872+253.282+57.4835+250.918+57.0402C248.554+56.5969+246.19+57.1879+244.306+58.4808C242.422+59.7737+241.018+61.7685+240.575+64.1326C240.575+64.2848+239.595+69.3376+237.261+77.7866C234.927+86.2355+225.825+111.817+225.825+111.817C225.825+111.817+230.117+110.862+235.25+111.164C240.384+111.465+244.352+113.254+244.352+113.254Z" opacity="1" fill="#1a34e0"/>
<path d="M251.043+42.6495L243.505+44.9157C242.577+45.1949+241.58+44.7916+241.107+43.9466L240.401+42.6878C238.727+39.6993+239.792+35.9201+242.781+34.2458L252.7+28.6883L251.043+42.6495Z" opacity="1" fill="#1a34e0"/>
<path d="M262.299+45.8218L267.545+51.6909C268.19+52.4134+269.251+52.5902+270.096+52.1168L271.355+51.4115C274.344+49.7372+275.409+45.958+273.735+42.9696L268.177+33.0501L262.299+45.8218Z" opacity="1" fill="#1a34e0"/>
<path d="M268.994+0.539491C268.308+0.346204+267.547+0.370858+266.867+0.691378C264.825+1.6529+262.836+2.84862+260.944+4.2987C249.779+12.8535+245.979+29.5246+251.033+42.6502L262.311+45.8398C273.475+37.285+278.908+21.0696+273.854+7.94398C272.998+5.71994+271.942+3.67875+270.702+1.79256C270.29+1.1641+269.679+0.732778+268.994+0.539491ZM263.488+13.5638C265.289+13.3638+267.141+14.2372+268.082+15.9181C269.338+18.1592+268.539+21.0037+266.298+22.2593C264.057+23.5151+261.212+22.7158+259.956+20.4747C258.701+18.2334+259.5+15.389+261.741+14.1334C262.301+13.8195+262.887+13.6305+263.488+13.5638Z" opacity="1" fill="#1a34e0"/>
</g>
</svg>
