<?xml version="1.0" encoding="UTF-8" standalone="no"?> <!-- Created with Vectornator for iOS (http://vectornator.io/) --><!DOCTYPE svg PUBLIC "-//W3C//DTD SVG 1.1//EN" "http://www.w3.org/Graphics/SVG/1.1/DTD/svg11.dtd">
<svg height="100%" style="fill-rule:nonzero;clip-rule:evenodd;stroke-linecap:round;stroke-linejoin:round;" xmlns:xlink="http://www.w3.org/1999/xlink" xmlns="http://www.w3.org/2000/svg" xml:space="preserve" width="100%" xmlns:vectornator="http://vectornator.io" version="1.1" viewBox="0 0 845 297">
<metadata>
<vectornator:setting key="DimensionsVisible" value="1"/>
<vectornator:setting key="PencilOnly" value="0"/>
<vectornator:setting key="SnapToPoints" value="1"/>
<vectornator:setting key="OutlineMode" value="0"/>
<vectornator:setting key="CMYKEnabledKey" value="0"/>
<vectornator:setting key="RulersVisible" value="1"/>
<vectornator:setting key="SnapToEdges" value="0"/>
<vectornator:setting key="GuidesVisible" value="1"/>
<vectornator:setting key="DisplayWhiteBackground" value="0"/>
<vectornator:setting key="doHistoryDisabled" value="0"/>
<vectornator:setting key="SnapToGuides" value="1"/>
<vectornator:setting key="TimeLapseWatermarkDisabled" value="0"/>
<vectornator:setting key="Units" value="Points"/>
<vectornator:setting key="DynamicGuides" value="1"/>
<vectornator:setting key="IsolateActiveLayer" value="0"/>
<vectornator:setting key="SnapToGrid" value="0"/>
</metadata>
<defs/>
<g id="Layer 1" vectornator:layerName="Layer 1">
<path d="M462.017+92.1805L462.017+209.778L479.473+209.778L479.622+197.409C485.185+204.827+495.219+211.174+509.281+211.174C531.688+211.174+549.321+193.108+549.321+166.837C549.321+140.567+531.842+123.224+509.281+123.224C495.837+123.224+485.185+129.566+479.622+137.293L479.622+95.4278L462.017+92.1805ZM505.441+138.547C518.73+138.547+531.411+148.448+531.411+166.837C531.411+185.227+518.73+195.888+505.441+195.888C492.305+195.888+479.622+185.531+479.622+167.142C479.622+148.907+492.305+138.547+505.441+138.547Z" opacity="1" fill="#fdfdfd"/>
<path d="M594.775+211.169C619.191+211.169+638.971+193.862+638.971+167.128C638.971+140.394+619.809+123.241+595.548+123.241C571.287+123.241+552.125+140.394+552.125+167.128C552.125+193.862+570.514+211.169+594.775+211.169ZM594.775+195.871C581.486+195.871+570.051+186.444+570.051+167.128C570.051+147.812+581.949+138.54+595.239+138.54C608.374+138.54+620.891+147.812+620.891+167.128C620.891+186.444+607.911+195.871+594.775+195.871Z" opacity="1" fill="#fdfdfd"/>
<path d="M684.429+211.169C708.845+211.169+728.625+193.862+728.625+167.128C728.625+140.394+709.463+123.241+685.202+123.241C660.94+123.241+641.778+140.394+641.778+167.128C641.778+193.862+660.168+211.169+684.429+211.169ZM684.429+195.871C671.139+195.871+659.704+186.444+659.704+167.128C659.704+147.812+671.603+138.54+684.892+138.54C698.028+138.54+710.545+147.812+710.545+167.128C710.545+186.444+697.564+195.871+684.429+195.871Z" opacity="1" fill="#fdfdfd"/>
<path d="M768.056+211.169C788.145+211.169+800.662+200.352+800.662+185.981C799.734+155.229+751.675+164.81+751.675+147.657C751.675+141.939+756.62+138.076+766.047+138.076C775.628+138.076+781.345+143.176+781.963+150.593L799.58+150.593C798.653+133.595+785.981+123.241+766.665+123.241C746.576+123.241+733.904+134.213+733.904+147.812C733.904+179.027+783.354+169.446+783.354+186.135C783.354+192.007+777.946+196.334+767.747+196.334C758.011+196.334+751.366+190.617+750.748+183.663L732.513+183.663C733.286+199.116+747.658+211.169+768.056+211.169Z" opacity="1" fill="#fdfdfd"/>
<path d="M807.128+103.461L807.128+124.632L807.128+139.003L807.128+186.135C807.128+203.443+816.554+209.778+831.698+209.778L846.533+209.778L846.533+195.222L834.789+195.098C827.371+195.098+824.899+192.471+824.899+186.135L824.899+139.003L845.606+139.003L845.606+124.632L824.899+124.632L824.899+103.461L807.128+103.461Z" opacity="1" fill="#fdfdfd"/>
<path d="M141.066+209.778C165.173+209.778+184.489+192.78+184.489+165.892C184.489+139.158+165.791+122.314+141.684+122.314C117.732+122.314+98.8789+139.158+98.8789+165.892C98.8789+192.78+117.114+209.778+141.066+209.778ZM141.066+197.416C126.385+197.416+113.25+187.371+113.25+165.892C113.25+144.566+126.694+134.522+141.529+134.522C156.055+134.522+170.118+144.566+170.118+165.892C170.118+187.371+155.746+197.416+141.066+197.416Z" opacity="1" fill="#fdfdfd"/>
<path d="M314.205+160.483L314.205+208.388L328.113+208.388L328.113+158.474C328.113+134.213+313.123+122.159+293.807+122.159C280.826+122.159+268.773+128.804+263.828+141.012C258.265+128.341+246.675+122.159+232.767+122.159C221.641+122.159+211.597+126.95+206.033+135.913L206.033+123.705L191.971+123.705L191.971+208.388L206.033+208.388L206.033+161.719C206.033+143.485+215.769+134.367+229.986+134.367C243.893+134.367+253.165+143.176+253.165+160.483L253.165+208.388L267.073+208.388L267.073+161.719C267.073+143.485+276.809+134.367+291.025+134.367C304.933+134.367+314.205+143.176+314.205+160.483Z" opacity="1" fill="#fdfdfd"/>
<path d="M402.043+160.483L402.043+208.388L415.951+208.388L415.951+158.474C415.951+134.213+400.961+122.159+381.336+122.159C369.901+122.159+359.702+126.95+354.139+135.758L354.139+123.705L340.076+123.705L340.076+208.388L354.139+208.388L354.139+161.565C354.139+143.33+364.029+134.367+378.4+134.367C392.617+134.367+402.043+143.176+402.043+160.483Z" opacity="1" fill="#fdfdfd"/>
<path d="M433.16+125.096L433.16+209.778L447.222+209.778L447.222+125.096L433.16+125.096ZM440.423+111.342C445.523+111.342+449.695+107.17+449.695+101.761C449.695+96.3528+445.523+92.1805+440.423+92.1805C435.014+92.1805+430.842+96.3528+430.842+101.761C430.842+107.17+435.014+111.342+440.423+111.342Z" opacity="1" fill="#fdfdfd"/>
<path d="M235.121+216.551C234.346+218.029+233.553+219.495+232.709+220.947C211.994+257.05+172.932+278.653+130.911+277.765C125.88+277.765+122.033+281.612+121.737+286.347C121.737+291.377+125.584+295.224+130.319+295.52C131.502+295.52+132.686+295.52+133.87+295.52C181.218+295.52+224.719+270.663+248.097+229.825C250.679+225.341+252.46+221.248+254.482+216.551" opacity="1" fill="#fdfdfd"/>
<path d="M160.717+216.551C109.312+269.973+58.041+289.825+39.4693+274.214C33.2549+268.887+30.2956+259.713+30.8875+247.284C37.9897+255.57+45.9797+263.264+55.4493+270.071C56.929+271.254+58.7045+271.846+60.776+271.846C63.4393+271.846+66.3986+270.663+67.8782+268.295C70.8375+264.448+69.9497+258.826+65.8068+255.866C17.5708+221.243+3.66227+156.731+32.959+105.832C64.3271+51.3813+134.758+33.0339+189.8+64.698C199.269+70.0246+207.851+76.8309+215.249+84.525C218.801+88.0761+224.423+88.0761+227.678+84.8209C231.229+81.2698+231.229+75.6472+227.974+72.392C219.392+63.5143+209.627+55.8202+198.678+49.6057C135.053+12.9109+53.6738+34.2176+17.5708+97.2498C-6.1033+138.384-5.21552+187.211+16.3871+226.274C16.0912+226.274+15.7952+226.866+15.7952+227.457C9.87672+255.274+14.3156+275.989+28.2241+287.826C35.6223+294.041+45.0919+297+56.0412+297C90.6916+297+139.504+267.576+184.489+216.551" opacity="1" fill="#fdfdfd"/>
<path d="M245.961+113C245.961+113+254.301+88.6097+256.418+80.6895C258.536+72.7693+259.498+67.8399+259.638+67.0654C260.082+64.698+259.49+62.3306+258.196+60.444C256.901+58.5575+254.904+57.1519+252.536+56.708C250.169+56.2641+247.801+56.8559+245.915+58.1506C244.028+59.4453+242.623+61.4428+242.179+63.8102C242.179+63.9626+241.197+69.0225+238.86+77.4831C236.523+85.9437+227.408+111.561+227.408+111.561C227.408+111.561+231.706+110.605+236.847+110.907C241.987+111.208+245.961+113+245.961+113Z" opacity="1" fill="#fdfdfd"/>
<path d="M252.662+42.2974L245.113+44.5667C244.184+44.8463+243.185+44.4424+242.711+43.5963L242.005+42.3357C240.328+39.3431+241.395+35.5587+244.387+33.882L254.321+28.3168L252.662+42.2974Z" opacity="1" fill="#fdfdfd"/>
<path d="M263.933+45.4741L269.186+51.3513C269.832+52.0748+270.895+52.2519+271.741+51.7778L273.002+51.0715C275.994+49.3949+277.061+45.6104+275.384+42.6179L269.819+32.6847L263.933+45.4741Z" opacity="1" fill="#fdfdfd"/>
<path d="M270.625+0.125C269.938-0.0685282+269.181-0.0397484+268.5+0.28125C266.455+1.2441+264.489+2.45412+262.594+3.90625C251.414+12.4729+247.595+29.1687+252.656+42.3125L263.938+45.4688C275.117+36.9021+280.592+20.675+275.531+7.53125C274.674+5.30412+273.585+3.26385+272.344+1.375C271.931+0.745667+271.312+0.318528+270.625+0.125ZM265.125+13.1875C266.929+12.9872+268.776+13.8481+269.719+15.5312C270.976+17.7755+270.15+20.6176+267.906+21.875C265.662+23.1324+262.851+22.338+261.594+20.0938C260.336+17.8495+261.131+15.0074+263.375+13.75C263.936+13.4357+264.524+13.2543+265.125+13.1875Z" opacity="1" fill="#fdfdfd"/>
<path d="M588.221+271.236C598.786+271.236+605.37+265.547+605.37+257.988C604.882+241.814+579.605+246.853+579.605+237.832C579.605+234.825+582.206+232.793+587.164+232.793C592.203+232.793+595.21+235.475+595.535+239.376L604.801+239.376C604.313+230.436+597.648+224.991+587.489+224.991C576.923+224.991+570.259+230.761+570.259+237.913C570.259+254.331+596.267+249.292+596.267+258.069C596.267+261.158+593.422+263.433+588.058+263.433C582.938+263.433+579.443+260.426+579.118+256.769L569.527+256.769C569.934+264.896+577.492+271.236+588.221+271.236Z" opacity="1" fill="#fdfdfd"/>
<path d="M649.83+270.586L649.83+225.803L640.565+225.803L640.565+250.755C640.565+258.963+636.095+263.19+629.268+263.19C622.522+263.19+618.052+258.963+618.052+250.755L618.052+225.803L608.868+225.803L608.868+252.136C608.868+264.653+616.833+271.236+627.317+271.236C632.6+271.236+637.639+269.041+640.565+265.222L640.565+270.586L649.83+270.586Z" opacity="1" fill="#fdfdfd"/>
<path d="M662.662+232.387L662.662+225.803L653.397+225.803L653.397+291.88L662.662+291.88L662.662+264.084C665.588+267.579+670.871+271.317+678.267+271.317C690.052+271.317+699.317+261.808+699.317+247.991C699.317+234.175+690.052+225.072+678.267+225.072C670.952+225.072+665.507+228.648+662.662+232.387ZM689.889+247.991C689.889+257.663+683.225+263.271+676.235+263.271C669.327+263.271+662.662+257.826+662.662+248.154C662.662+238.563+669.327+233.118+676.235+233.118C683.225+233.118+689.889+238.32+689.889+247.991Z" opacity="1" fill="#fdfdfd"/>
<path d="M711.648+232.387L711.648+225.803L702.382+225.803L702.382+291.88L711.648+291.88L711.648+264.084C714.573+267.579+719.856+271.317+727.252+271.317C739.037+271.317+748.302+261.808+748.302+247.991C748.302+234.175+739.037+225.072+727.252+225.072C719.938+225.072+714.492+228.648+711.648+232.387ZM738.875+247.991C738.875+257.663+732.21+263.271+725.22+263.271C718.312+263.271+711.648+257.826+711.648+248.154C711.648+238.563+718.312+233.118+725.22+233.118C732.21+233.118+738.875+238.32+738.875+247.991Z" opacity="1" fill="#fdfdfd"/>
<path d="M773.379+271.236C786.22+271.236+796.623+262.133+796.623+248.073C796.623+234.012+786.545+224.991+773.785+224.991C761.025+224.991+750.947+234.012+750.947+248.073C750.947+262.133+760.618+271.236+773.379+271.236ZM773.379+263.19C766.389+263.19+760.375+258.232+760.375+248.073C760.375+237.913+766.633+233.037+773.622+233.037C780.531+233.037+787.114+237.913+787.114+248.073C787.114+258.232+780.287+263.19+773.379+263.19Z" opacity="1" fill="#fdfdfd"/>
<path d="M808.98+247.747C808.98+238.238+813.207+235.394+820.034+235.394L822.391+235.394L822.391+226.535C816.051+226.535+811.053+225.803+808.98+230.701L808.98+226.535L799.715+226.535L799.715+271.317L808.98+271.317L808.98+247.747Z" opacity="1" fill="#fdfdfd"/>
<path d="M826.296+215.4L826.296+226.535L826.296+234.093L826.296+258.882C826.296+267.985+831.253+271.317+839.218+271.317L846.533+271.317L846.533+263.596L840.844+263.596C836.943+263.596+835.642+262.214+835.642+258.882L835.642+234.093L846.533+234.093L846.533+226.535L835.642+226.535L835.642+215.4L826.296+215.4Z" opacity="1" fill="#fdfdfd"/>
</g>
</svg>
